<svg id="svg" version="1.1" xmlns="http://www.w3.org/2000/svg" xmlns:xlink="http://www.w3.org/1999/xlink" width="400" height="400" viewBox="0, 0, 400,400"><g id="svgg"><path id="path0" d="M187.600 131.400 L 187.600 137.600 181.400 137.600 L 175.200 137.600 175.200 143.800 L 175.200 150.000 212.300 150.000 L 249.400 149.999 249.400 143.809 L 249.400 137.619 243.400 137.510 L 237.400 137.400 237.290 131.300 L 237.179 125.200 212.390 125.200 L 187.600 125.200 187.600 131.400 M150.730 143.457 C 150.832 147.999,150.742 149.391,150.330 149.651 C 150.032 149.841,152.506 149.977,156.000 149.962 C 159.410 149.948,161.975 149.846,161.700 149.735 C 161.070 149.481,160.973 138.400,161.600 138.400 C 161.820 138.400,162.000 138.220,162.000 138.000 C 162.000 137.752,159.833 137.600,156.300 137.599 L 150.600 137.599 150.730 143.457 M262.600 143.738 L 262.600 149.999 268.657 150.000 C 275.847 150.000,275.200 149.324,275.200 156.833 L 275.200 162.400 293.600 162.400 L 312.000 162.400 312.000 150.200 L 312.000 138.000 297.100 137.999 C 288.905 137.999,277.790 137.881,272.400 137.737 L 262.600 137.477 262.600 143.738 M137.600 169.000 L 137.600 175.200 131.400 175.200 L 125.200 175.200 125.200 178.936 C 125.200 180.990,125.319 186.480,125.464 191.136 L 125.727 199.600 131.264 199.600 L 136.800 199.600 136.800 193.862 C 136.800 186.422,136.418 186.800,143.931 186.800 L 149.600 186.800 149.600 181.233 C 149.600 173.755,149.029 174.400,155.643 174.400 L 161.200 174.400 161.200 169.000 C 161.200 165.667,161.353 163.600,161.600 163.600 C 161.820 163.600,162.000 163.420,162.000 163.200 C 162.000 162.942,157.667 162.800,149.800 162.800 L 137.600 162.800 137.600 169.000 M174.800 169.000 L 174.800 175.200 168.800 175.200 L 162.800 175.200 162.800 187.590 L 162.800 199.980 156.500 200.090 L 150.200 200.200 150.000 206.400 L 149.800 212.600 143.800 212.800 L 137.800 213.000 137.600 219.000 L 137.400 225.000 131.310 225.110 L 125.221 225.221 125.110 231.310 L 125.000 237.400 118.900 237.510 L 112.800 237.621 112.800 243.810 L 112.800 250.000 125.200 250.000 L 137.600 250.000 137.600 256.157 C 137.600 263.462,138.280 262.800,130.778 262.800 L 125.221 262.800 125.110 268.900 L 125.000 275.000 118.910 275.110 L 112.821 275.221 112.710 281.310 L 112.600 287.400 106.500 287.510 L 100.400 287.621 100.400 293.610 L 100.400 299.600 105.967 299.600 C 113.482 299.600,112.800 298.937,112.800 306.243 L 112.800 312.400 107.233 312.400 C 99.730 312.400,100.400 311.770,100.400 318.832 L 100.400 324.779 106.500 324.890 L 112.600 325.000 112.710 331.090 L 112.821 337.179 118.910 337.290 L 125.000 337.400 125.110 343.500 L 125.221 349.600 130.910 349.606 C 138.227 349.614,137.666 349.043,137.521 356.337 L 137.400 362.401 153.235 362.401 C 161.945 362.400,173.150 362.281,178.135 362.136 L 187.200 361.872 187.201 333.836 C 187.201 318.416,187.320 301.615,187.465 296.500 L 187.728 287.200 193.864 287.200 L 200.000 287.200 200.000 281.010 L 200.000 274.821 206.100 274.710 L 212.200 274.600 212.200 250.000 L 212.200 225.400 206.100 225.290 L 200.000 225.179 200.000 193.990 L 200.000 162.800 187.400 162.800 L 174.800 162.800 174.800 169.000 M212.799 175.100 L 212.799 187.400 218.432 187.279 C 225.675 187.122,225.200 186.647,225.200 194.049 L 225.200 200.000 231.390 200.000 L 237.579 200.000 237.690 206.100 L 237.800 212.200 243.896 212.310 L 249.992 212.421 250.096 231.110 L 250.200 249.800 262.600 250.000 L 275.000 250.200 275.000 262.600 L 275.000 275.000 268.800 275.200 L 262.600 275.400 262.600 281.200 L 262.600 287.000 268.695 287.110 C 276.096 287.244,275.320 285.610,275.138 300.680 L 275.000 312.200 293.649 312.304 L 312.299 312.408 312.593 324.793 L 312.888 337.178 325.144 337.289 C 331.885 337.350,340.190 337.310,343.600 337.200 L 349.800 337.000 349.910 330.900 L 350.021 324.800 356.010 324.800 L 362.000 324.800 362.000 312.833 C 362.000 297.969,361.206 299.600,368.443 299.600 L 374.400 299.600 374.400 293.606 L 374.400 287.612 362.100 287.506 L 349.800 287.400 349.690 281.300 L 349.579 275.200 337.200 275.200 L 324.821 275.200 324.710 269.100 L 324.600 263.000 318.400 262.800 L 312.200 262.600 312.096 243.700 L 311.992 224.800 306.029 224.800 C 298.096 224.800,298.800 225.388,298.800 218.757 L 298.800 213.200 293.344 213.200 C 286.458 213.200,286.830 213.600,286.813 206.163 L 286.800 200.527 277.900 200.269 C 273.005 200.127,264.815 199.890,259.700 199.743 L 250.400 199.474 250.400 193.814 C 250.400 189.456,250.265 187.974,249.813 187.376 C 249.364 186.783,249.222 185.301,249.213 181.100 L 249.200 175.600 244.000 175.600 L 238.800 175.600 238.800 169.600 L 238.800 163.600 243.976 163.600 C 246.996 163.600,249.256 163.433,249.400 163.200 C 249.563 162.936,243.404 162.800,231.224 162.800 L 212.800 162.800 212.799 175.100 M262.720 168.789 L 262.840 174.779 268.920 174.890 L 275.000 175.000 275.110 181.100 L 275.221 187.200 280.778 187.200 C 288.280 187.200,287.600 186.538,287.600 193.843 L 287.600 200.000 293.800 200.000 L 300.000 200.000 300.000 206.200 L 300.000 212.400 306.000 212.400 L 312.000 212.400 312.000 193.804 L 312.000 175.208 293.500 175.104 L 275.000 175.000 274.890 168.900 L 274.779 162.800 268.690 162.799 L 262.600 162.799 262.720 168.789 M286.400 244.000 L 286.400 249.200 281.200 249.200 L 276.000 249.200 276.000 244.000 L 276.000 238.800 281.200 238.800 L 286.400 238.800 286.400 244.000 M87.780 300.509 C 87.668 300.800,87.627 303.550,87.688 306.619 L 87.800 312.200 93.800 312.200 L 99.800 312.200 99.800 306.200 L 99.800 300.200 93.892 300.089 C 89.276 300.003,87.939 300.095,87.780 300.509 M343.633 313.200 L 349.200 313.200 349.200 319.200 L 349.200 325.200 344.019 325.200 C 340.939 325.200,338.424 325.012,337.819 324.736 L 336.800 324.272 336.800 318.493 C 336.800 313.388,336.874 312.743,337.433 312.957 C 337.781 313.091,340.571 313.200,343.633 313.200 " stroke="none" fill="#2183e8" fill-rule="evenodd"></path><path id="path1" d="M137.783 75.701 C 137.675 75.980,137.635 81.517,137.694 88.005 L 137.800 99.800 156.200 99.800 L 174.600 99.800 174.600 87.600 L 174.600 75.400 156.289 75.296 C 141.767 75.213,137.938 75.297,137.783 75.701 M225.381 75.705 C 225.275 75.982,225.235 81.517,225.294 88.005 L 225.400 99.800 250.100 99.903 L 274.800 100.006 274.800 87.603 L 274.800 75.200 250.187 75.200 C 230.746 75.200,225.534 75.306,225.381 75.705 M125.200 143.794 L 125.200 149.600 137.611 149.600 L 150.022 149.600 149.911 143.900 L 149.800 138.200 137.500 138.094 L 125.200 137.988 125.200 143.794 M113.300 163.065 C 112.932 163.214,112.800 164.826,112.800 169.191 C 112.800 176.227,113.470 175.600,105.957 175.600 L 100.379 175.600 100.489 181.500 L 100.600 187.400 106.600 187.600 L 112.600 187.800 112.710 193.900 L 112.821 200.000 106.614 200.000 L 100.408 200.000 100.304 218.900 L 100.200 237.800 94.104 237.910 L 88.008 238.021 87.904 256.510 L 87.800 275.000 81.700 275.110 L 75.600 275.221 75.600 281.130 C 75.600 288.490,76.076 288.000,68.920 288.000 L 63.200 288.000 63.200 312.400 L 63.200 336.800 68.951 336.800 C 76.028 336.800,75.549 336.300,75.689 343.828 L 75.800 349.800 81.689 349.911 L 87.579 350.021 87.689 355.911 L 87.800 361.800 100.100 361.906 L 112.400 362.012 112.400 356.016 L 112.400 350.021 106.300 349.910 L 100.200 349.800 100.090 343.710 L 99.979 337.621 93.890 337.510 L 87.800 337.400 87.690 331.300 L 87.579 325.200 81.639 325.200 C 77.095 325.200,75.591 325.071,75.243 324.652 C 74.920 324.263,74.819 320.637,74.894 312.152 L 75.000 300.200 81.200 300.000 L 87.400 299.800 87.600 293.600 L 87.800 287.400 93.894 287.290 L 99.988 287.179 100.094 274.890 L 100.200 262.600 106.297 262.490 L 112.394 262.379 112.497 237.490 L 112.600 212.600 118.636 212.490 L 124.673 212.380 124.935 203.090 C 125.080 197.980,125.199 189.615,125.199 184.500 L 125.200 175.200 130.767 175.200 C 133.829 175.200,136.619 175.091,136.967 174.957 C 137.914 174.594,137.914 163.406,136.967 163.043 C 136.213 162.753,114.021 162.774,113.300 163.065 M219.000 212.784 L 213.000 213.000 213.000 218.800 L 213.000 224.600 219.200 224.800 L 225.400 225.000 225.504 243.500 L 225.608 262.000 231.171 262.000 C 234.231 262.000,237.019 262.109,237.367 262.243 C 237.925 262.457,238.000 263.943,238.000 274.832 L 238.000 287.179 244.100 287.290 L 250.200 287.400 250.306 299.690 L 250.412 311.979 256.506 312.090 L 262.600 312.200 262.710 318.290 L 262.821 324.379 268.910 324.490 L 275.000 324.600 275.200 337.000 L 275.400 349.400 293.800 349.400 L 312.200 349.400 312.311 343.510 L 312.421 337.621 306.311 337.510 L 300.200 337.400 300.090 331.300 L 299.979 325.200 294.070 325.200 C 286.696 325.200,287.200 325.704,287.200 318.330 L 287.200 312.421 281.100 312.310 L 275.000 312.200 274.890 306.110 L 274.779 300.021 268.690 299.910 L 262.600 299.800 262.496 281.421 C 262.416 267.328,262.276 262.969,261.896 262.727 C 261.623 262.554,258.835 262.409,255.700 262.406 L 250.000 262.400 250.000 243.800 L 250.000 225.200 244.080 225.200 C 236.712 225.200,237.200 225.671,237.200 218.563 C 237.200 213.755,237.103 212.848,236.567 212.643 C 235.883 212.380,228.564 212.439,219.000 212.784 " stroke="none" fill="#9ce0f2" fill-rule="evenodd"></path><path id="path2" d="M137.400 137.991 L 149.800 138.200 149.911 143.900 L 150.022 149.600 137.511 149.694 L 125.000 149.788 137.000 149.906 C 152.468 150.058,150.800 150.745,150.800 144.225 C 150.800 141.277,150.691 138.581,150.557 138.233 C 150.342 137.672,148.884 137.610,137.657 137.691 L 125.000 137.783 137.400 137.991 M161.700 138.198 C 160.886 139.123,161.004 149.439,161.833 149.757 C 162.181 149.891,165.331 150.000,168.833 150.000 L 175.200 150.000 175.200 143.800 L 175.200 137.600 168.700 137.615 C 163.601 137.627,162.092 137.753,161.700 138.198 M249.392 138.500 C 249.270 138.995,249.221 141.740,249.285 144.600 L 249.400 149.800 256.000 149.800 L 262.600 149.800 262.715 144.600 C 262.886 136.894,263.564 137.600,256.000 137.600 C 249.712 137.600,249.612 137.614,249.392 138.500 M161.700 163.398 C 161.355 163.791,161.200 165.579,161.200 169.183 L 161.200 174.400 155.643 174.400 C 149.029 174.400,149.600 173.755,149.600 181.233 L 149.600 186.800 143.862 186.800 C 136.422 186.800,136.800 186.418,136.800 193.931 L 136.800 199.600 131.211 199.600 L 125.622 199.600 125.511 193.900 C 125.424 189.418,125.325 190.784,125.050 200.290 L 124.699 212.380 118.650 212.490 L 112.600 212.600 112.497 237.490 L 112.394 262.379 106.297 262.490 L 100.200 262.600 100.094 274.890 L 99.988 287.179 93.894 287.290 L 87.800 287.400 87.600 293.600 L 87.400 299.800 81.200 300.000 L 75.000 300.200 74.894 312.152 C 74.819 320.637,74.920 324.263,75.243 324.652 C 75.591 325.071,77.095 325.200,81.639 325.200 L 87.579 325.200 87.690 331.300 L 87.800 337.400 93.890 337.510 L 99.979 337.621 100.090 343.710 L 100.200 349.800 106.300 349.910 L 112.400 350.021 112.400 356.016 L 112.400 362.012 100.100 361.906 L 87.800 361.800 87.689 355.911 L 87.579 350.021 81.689 349.911 L 75.800 349.800 75.689 343.828 C 75.549 336.300,76.028 336.800,68.951 336.800 L 63.200 336.800 63.200 312.400 L 63.200 288.000 68.920 288.000 C 76.103 288.000,75.621 288.510,75.516 281.020 L 75.432 275.000 75.216 281.200 L 75.000 287.400 68.900 287.510 L 62.800 287.621 62.800 312.400 L 62.800 337.179 68.900 337.290 L 75.000 337.400 75.200 349.800 L 75.400 362.200 106.400 362.200 L 137.400 362.200 137.511 356.230 C 137.645 349.052,138.205 349.614,130.910 349.606 L 125.221 349.600 125.110 343.500 L 125.000 337.400 118.910 337.290 L 112.821 337.179 112.710 331.090 L 112.600 325.000 106.500 324.890 L 100.400 324.779 100.400 318.832 C 100.400 311.770,99.730 312.400,107.233 312.400 L 112.800 312.400 112.800 306.243 C 112.800 298.937,113.482 299.600,105.967 299.600 L 100.400 299.600 100.400 293.610 L 100.400 287.621 106.500 287.510 L 112.600 287.400 112.710 281.310 L 112.821 275.221 118.910 275.110 L 125.000 275.000 125.110 268.900 L 125.221 262.800 130.778 262.800 C 138.280 262.800,137.600 263.462,137.600 256.157 L 137.600 250.000 125.200 250.000 L 112.800 250.000 112.800 243.810 L 112.800 237.621 118.900 237.510 L 125.000 237.400 125.110 231.310 L 125.221 225.221 131.310 225.110 L 137.400 225.000 137.600 219.000 L 137.800 213.000 143.800 212.800 L 149.800 212.600 150.000 206.400 L 150.200 200.200 156.500 200.090 L 162.800 199.980 162.800 187.590 L 162.800 175.200 168.800 175.200 L 174.800 175.200 174.800 169.000 L 174.800 162.800 168.500 162.815 C 163.574 162.827,162.091 162.954,161.700 163.398 M249.406 163.190 C 249.254 163.436,247.078 163.600,243.976 163.600 L 238.800 163.600 238.800 169.600 L 238.800 175.600 244.000 175.600 L 249.200 175.600 249.213 181.100 C 249.222 185.301,249.364 186.783,249.813 187.376 C 250.265 187.974,250.400 189.456,250.400 193.813 L 250.400 199.473 259.300 199.731 C 264.195 199.873,272.385 200.110,277.500 200.257 L 286.800 200.526 286.813 206.163 C 286.830 213.600,286.458 213.200,293.344 213.200 L 298.800 213.200 298.800 218.757 C 298.800 225.397,298.065 224.800,306.243 224.800 L 312.421 224.800 312.310 218.700 L 312.200 212.600 306.100 212.490 L 300.000 212.379 300.000 206.190 L 300.000 200.000 293.800 200.000 L 287.600 200.000 287.600 193.843 C 287.600 186.538,288.280 187.200,280.778 187.200 L 275.221 187.200 275.110 181.100 L 275.000 175.000 268.911 174.890 L 262.821 174.779 262.711 168.890 L 262.600 163.000 256.130 162.890 C 252.026 162.821,249.567 162.930,249.406 163.190 M100.127 175.846 C 99.991 176.201,99.978 180.386,100.099 185.146 C 100.220 189.906,100.202 203.610,100.059 215.600 L 99.800 237.400 93.800 237.600 L 87.800 237.800 87.696 256.289 L 87.592 274.779 81.696 274.907 L 75.800 275.034 81.800 275.017 L 87.800 275.000 87.904 256.510 L 88.008 238.021 94.104 237.910 L 100.200 237.800 100.304 218.900 L 100.408 200.000 106.614 200.000 L 112.821 200.000 112.710 193.900 L 112.600 187.800 106.600 187.600 L 100.600 187.400 100.489 181.511 L 100.379 175.622 106.289 175.499 L 112.200 175.377 106.287 175.288 C 101.163 175.212,100.342 175.286,100.127 175.846 M213.021 187.700 C 212.718 188.684,212.409 224.358,212.701 224.539 C 212.866 224.641,213.000 222.087,213.000 218.862 L 213.000 213.000 224.090 212.654 C 230.189 212.464,235.634 212.422,236.190 212.562 L 237.200 212.815 237.200 218.528 C 237.200 225.676,236.709 225.200,244.080 225.200 L 250.000 225.200 250.000 218.810 L 250.000 212.421 243.900 212.310 L 237.800 212.200 237.690 206.100 L 237.579 200.000 231.390 200.000 L 225.200 200.000 225.200 194.080 C 225.200 190.009,225.050 188.010,224.720 187.680 C 224.029 186.989,213.234 187.007,213.021 187.700 M224.932 225.367 C 225.079 225.751,225.200 234.236,225.200 244.222 L 225.200 262.379 231.300 262.490 L 237.400 262.600 237.609 275.000 L 237.817 287.400 237.909 274.943 C 237.990 263.898,237.928 262.458,237.367 262.243 C 237.019 262.109,234.229 262.000,231.167 262.000 L 225.600 262.000 225.600 243.624 C 225.600 230.025,225.478 225.172,225.132 224.958 C 224.813 224.761,224.749 224.891,224.932 225.367 M276.000 244.000 L 276.000 249.200 281.200 249.200 L 286.400 249.200 286.400 244.000 L 286.400 238.800 281.200 238.800 L 276.000 238.800 276.000 244.000 M250.000 256.100 L 250.000 262.400 255.567 262.400 C 263.087 262.400,262.400 261.722,262.399 269.143 L 262.399 275.400 268.699 275.200 L 275.000 275.000 275.000 262.600 L 275.000 250.200 262.500 250.000 L 249.999 249.800 250.000 256.100 M262.490 293.400 L 262.600 299.800 268.901 300.000 L 275.201 300.200 275.195 294.200 C 275.186 286.635,275.785 287.266,268.479 287.121 L 262.380 287.000 262.490 293.400 M250.000 299.738 L 250.200 312.200 256.290 312.310 L 262.379 312.421 262.490 318.510 L 262.600 324.600 268.700 324.710 L 274.800 324.821 274.800 336.778 C 274.800 343.354,274.909 349.019,275.043 349.367 C 275.326 350.104,286.733 350.200,318.900 349.734 L 337.200 349.470 337.200 343.335 L 337.200 337.200 325.044 337.200 L 312.889 337.200 312.594 324.800 L 312.299 312.400 299.749 312.400 L 287.200 312.400 287.200 318.320 C 287.200 325.705,286.695 325.200,294.070 325.200 L 299.979 325.200 300.090 331.300 L 300.200 337.400 306.311 337.510 L 312.421 337.621 312.311 343.510 L 312.200 349.400 293.800 349.400 L 275.400 349.400 275.200 337.000 L 275.000 324.600 268.910 324.490 L 262.821 324.379 262.710 318.290 L 262.600 312.200 256.500 312.090 L 250.400 311.979 250.400 299.813 C 250.400 293.122,250.265 287.564,250.100 287.461 C 249.935 287.359,249.890 292.884,250.000 299.738 M99.800 306.200 L 99.800 312.200 93.800 312.200 L 87.800 312.200 87.688 306.619 C 87.541 299.287,86.903 299.958,93.892 300.089 L 99.800 300.200 99.800 306.200 M336.800 318.493 L 336.800 324.272 337.819 324.736 C 338.424 325.012,340.939 325.200,344.019 325.200 L 349.200 325.200 349.200 319.200 L 349.200 313.200 343.633 313.200 C 340.571 313.200,337.781 313.091,337.433 312.957 C 336.874 312.743,336.800 313.388,336.800 318.493 " stroke="none" fill="#11b7d1" fill-rule="evenodd"></path><path id="path3" d="M174.400 5.800 L 174.400 11.600 168.429 11.600 C 160.739 11.600,161.200 11.151,161.200 18.629 L 161.200 24.400 155.400 24.400 L 149.600 24.400 149.600 43.000 L 149.600 61.600 137.050 61.600 L 124.500 61.600 124.250 62.850 C 124.113 63.538,124.000 77.578,124.000 94.050 L 124.000 124.000 118.900 124.005 C 116.095 124.008,113.395 124.119,112.900 124.252 L 112.000 124.493 112.000 142.847 L 112.000 161.200 106.433 161.200 C 98.908 161.200,99.600 160.507,99.600 168.043 L 99.600 174.400 93.000 174.400 L 86.400 174.400 86.400 199.189 L 86.400 223.978 80.700 224.089 L 75.000 224.200 74.897 249.100 L 74.794 274.000 68.677 274.000 C 61.081 274.000,61.600 273.511,61.600 280.670 L 61.600 286.379 55.500 286.490 L 49.400 286.600 49.400 312.400 L 49.400 338.200 55.500 338.310 L 61.600 338.421 61.600 350.596 C 61.600 365.056,60.774 363.600,68.974 363.600 L 74.800 363.600 74.800 369.600 L 74.800 375.600 80.600 375.600 L 86.400 375.600 86.400 381.200 L 86.400 386.800 80.600 386.800 L 74.800 386.800 74.800 393.400 L 74.800 400.000 112.800 400.000 L 150.800 400.000 150.800 394.200 L 150.800 388.400 156.720 388.400 C 164.106 388.400,163.600 388.906,163.600 381.520 L 163.600 375.600 176.000 375.600 L 188.400 375.600 188.400 369.600 L 188.400 363.600 193.767 363.600 C 196.719 363.600,199.419 363.491,199.767 363.357 C 200.338 363.138,200.400 359.454,200.400 325.767 L 200.400 288.420 206.700 288.310 L 213.000 288.200 213.110 282.100 L 213.221 276.000 218.610 276.000 L 224.000 276.000 224.000 281.426 C 224.000 288.839,223.584 288.400,230.614 288.400 L 236.400 288.400 236.400 300.520 C 236.400 309.413,236.528 312.768,236.880 313.120 C 237.210 313.450,239.208 313.600,243.274 313.600 L 249.188 313.600 249.294 325.900 L 249.400 338.200 255.500 338.310 L 261.600 338.421 261.600 344.610 L 261.600 350.800 267.800 350.800 L 274.000 350.800 274.000 356.786 C 274.000 362.295,274.062 362.805,274.774 363.186 C 275.275 363.454,281.975 363.600,293.774 363.600 L 312.000 363.600 312.000 368.800 L 312.000 374.000 306.033 374.000 C 302.751 374.000,299.781 374.109,299.433 374.243 C 298.874 374.457,298.800 375.979,298.800 387.243 L 298.800 400.000 324.800 400.000 L 350.800 400.000 350.800 394.206 L 350.800 388.412 363.100 388.306 L 375.400 388.200 375.506 375.900 L 375.612 363.600 387.806 363.600 L 400.000 363.600 400.000 331.200 L 400.000 298.800 394.200 298.800 L 388.400 298.800 388.400 286.880 C 388.400 278.142,388.272 274.832,387.920 274.480 C 387.568 274.128,384.258 274.000,375.520 274.000 L 363.600 274.000 363.595 268.700 C 363.586 260.891,364.250 261.600,356.953 261.600 L 350.800 261.600 350.800 255.400 L 350.800 249.200 338.000 249.200 L 325.200 249.200 325.200 193.810 L 325.200 138.420 331.700 138.310 L 338.200 138.200 338.306 125.910 L 338.412 113.621 344.506 113.510 L 350.600 113.400 350.701 56.700 L 350.803 0.000 262.601 0.000 L 174.400 0.000 174.400 5.800 M237.510 31.500 L 237.621 37.600 262.368 37.600 C 284.564 37.600,287.139 37.665,287.357 38.233 C 287.491 38.581,287.600 41.366,287.600 44.422 L 287.600 49.979 293.700 50.090 L 299.800 50.200 299.903 75.090 L 300.006 99.979 306.103 100.090 L 312.200 100.200 312.200 112.600 L 312.200 125.000 281.200 125.000 L 250.200 125.000 250.090 118.904 L 249.979 112.808 268.690 112.704 L 287.400 112.600 287.400 87.800 L 287.400 63.000 249.900 62.898 L 212.400 62.796 212.400 75.198 L 212.400 87.600 200.000 87.600 L 187.600 87.600 187.600 75.206 L 187.600 62.811 175.100 62.706 L 162.600 62.600 162.600 56.400 L 162.600 50.200 175.090 50.094 L 187.579 49.989 187.690 43.894 L 187.800 37.800 193.900 37.690 L 200.000 37.579 200.000 43.790 L 200.000 50.000 206.190 50.000 L 212.379 50.000 212.490 43.900 L 212.600 37.800 218.700 37.690 L 224.800 37.579 224.800 31.656 C 224.800 28.399,224.925 25.609,225.077 25.457 C 225.229 25.304,228.064 25.229,231.377 25.290 L 237.400 25.400 237.510 31.500 M175.200 87.604 L 175.200 100.408 156.300 100.304 L 137.400 100.200 137.294 88.004 C 137.236 81.296,137.275 75.581,137.381 75.304 C 137.533 74.909,141.624 74.800,156.387 74.800 L 175.200 74.800 175.200 87.604 M275.106 87.500 L 275.000 100.200 249.900 100.303 L 224.800 100.406 224.800 87.603 L 224.800 74.800 250.006 74.800 L 275.211 74.800 275.106 87.500 M211.767 100.243 C 212.305 100.449,212.400 101.380,212.400 106.443 L 212.400 112.400 200.000 112.400 L 187.600 112.400 187.600 106.433 C 187.600 102.034,187.731 100.414,188.100 100.265 C 188.821 99.974,211.013 99.953,211.767 100.243 M168.934 112.665 L 187.600 112.931 187.600 118.862 L 187.600 124.794 212.500 124.897 L 237.400 125.000 237.600 131.000 L 237.800 137.000 275.106 137.351 L 312.411 137.702 312.306 150.151 L 312.200 162.600 293.700 162.704 L 275.200 162.808 275.200 168.804 L 275.200 174.800 293.576 174.800 C 305.783 174.800,312.038 174.939,312.208 175.213 C 312.348 175.440,312.464 194.938,312.464 218.542 C 312.465 242.146,312.593 261.665,312.749 261.918 C 312.938 262.223,315.051 262.415,319.017 262.489 L 325.000 262.600 325.110 268.700 L 325.221 274.800 337.610 274.800 L 350.000 274.800 350.000 281.000 L 350.000 287.200 362.151 287.200 C 376.671 287.200,375.258 286.453,375.111 294.055 L 375.000 299.800 368.800 300.000 L 362.600 300.200 362.400 312.600 L 362.200 325.000 356.100 325.110 L 350.000 325.221 350.000 331.210 L 350.000 337.200 362.400 337.200 L 374.800 337.200 374.800 324.790 L 374.800 312.380 381.100 312.490 L 387.400 312.600 387.400 331.200 L 387.400 349.800 374.900 349.906 L 362.400 350.011 362.400 362.406 L 362.400 374.800 350.500 374.806 C 343.955 374.809,338.380 374.952,338.111 375.123 C 337.770 375.339,337.589 377.245,337.511 381.417 L 337.400 387.400 325.000 387.400 L 312.600 387.400 312.490 381.110 L 312.380 374.821 318.490 374.710 L 324.600 374.600 324.710 368.510 L 324.821 362.421 330.910 362.310 L 337.000 362.200 337.110 356.100 L 337.221 350.000 306.010 350.000 L 274.800 350.000 274.800 337.600 L 274.800 325.200 268.643 325.200 C 261.337 325.200,262.000 325.882,262.000 318.367 L 262.000 312.800 256.043 312.800 C 248.808 312.800,249.600 314.401,249.600 299.767 L 249.600 288.000 244.300 287.995 C 241.385 287.992,238.595 287.881,238.100 287.748 L 237.200 287.507 237.200 275.153 L 237.200 262.800 231.004 262.800 L 224.808 262.800 224.704 244.100 L 224.600 225.400 218.800 225.400 L 213.000 225.400 212.800 250.200 L 212.600 275.000 206.300 275.110 L 200.000 275.220 200.000 281.400 L 200.000 287.579 193.900 287.690 L 187.800 287.800 187.698 325.043 L 187.596 362.286 175.898 362.546 C 161.898 362.857,76.985 362.846,75.700 362.533 L 74.800 362.313 74.800 349.957 L 74.800 337.600 68.600 337.600 L 62.400 337.600 62.400 312.400 L 62.400 287.200 68.600 287.200 L 74.800 287.200 74.800 281.000 L 74.800 274.800 80.996 274.800 L 87.192 274.800 87.296 256.100 L 87.400 237.400 93.500 237.290 L 99.600 237.179 99.700 218.490 C 99.755 208.210,99.800 194.220,99.800 187.400 L 99.800 175.000 106.000 174.800 L 112.200 174.600 112.310 168.539 C 112.396 163.819,112.543 162.431,112.975 162.265 C 113.279 162.148,132.985 162.159,156.764 162.290 L 200.000 162.528 200.000 193.674 L 200.000 224.821 206.100 224.710 L 212.200 224.600 212.302 193.500 L 212.405 162.400 243.602 162.400 L 274.800 162.400 274.800 156.400 L 274.800 150.400 268.500 150.368 C 265.035 150.350,231.330 150.305,193.600 150.268 L 125.000 150.200 125.000 143.800 L 125.000 137.400 156.100 137.298 L 187.200 137.195 187.200 131.198 L 187.200 125.200 162.400 125.200 L 137.600 125.200 137.600 119.067 C 137.600 115.693,137.720 112.813,137.867 112.667 C 138.203 112.331,145.378 112.330,168.934 112.665 M337.690 343.690 L 337.800 349.800 343.800 349.800 L 349.800 349.800 349.800 343.800 L 349.800 337.800 343.690 337.690 L 337.579 337.579 337.690 343.690 M149.910 381.100 L 149.800 387.400 125.000 387.400 L 100.200 387.400 100.090 381.100 L 99.980 374.800 125.000 374.800 L 150.020 374.800 149.910 381.100 " stroke="none" fill="#040404" fill-rule="evenodd"></path><path id="path4" d="M225.077 25.457 C 224.925 25.609,224.800 28.399,224.800 31.656 L 224.800 37.579 218.700 37.690 L 212.600 37.800 212.490 43.900 L 212.379 50.000 206.190 50.000 L 200.000 50.000 200.000 43.790 L 200.000 37.579 193.900 37.690 L 187.800 37.800 187.690 43.894 L 187.579 49.989 175.090 50.094 L 162.600 50.200 162.600 56.400 L 162.600 62.600 175.100 62.706 L 187.600 62.811 187.600 75.206 L 187.600 87.600 200.000 87.600 L 212.400 87.600 212.400 75.198 L 212.400 62.796 249.900 62.898 L 287.400 63.000 287.400 87.800 L 287.400 112.600 268.690 112.704 L 249.979 112.808 250.090 118.904 L 250.200 125.000 281.200 125.000 L 312.200 125.000 312.200 112.600 L 312.200 100.200 306.103 100.090 L 300.006 99.979 299.903 75.090 L 299.800 50.200 293.700 50.090 L 287.600 49.979 287.600 44.422 C 287.600 41.366,287.491 38.581,287.357 38.233 C 287.139 37.665,284.564 37.600,262.368 37.600 L 237.621 37.600 237.510 31.500 L 237.400 25.400 231.377 25.290 C 228.064 25.229,225.229 25.304,225.077 25.457 M137.381 75.304 C 137.275 75.581,137.236 81.296,137.294 88.004 L 137.400 100.200 156.300 100.304 L 175.200 100.408 175.200 87.604 L 175.200 74.800 156.387 74.800 C 141.624 74.800,137.533 74.909,137.381 75.304 M224.800 87.603 L 224.800 100.406 249.900 100.303 L 275.000 100.200 275.106 87.500 L 275.211 74.800 250.006 74.800 L 224.800 74.800 224.800 87.603 M174.800 87.604 L 174.800 100.008 156.300 99.904 L 137.800 99.800 137.694 87.500 L 137.588 75.200 156.194 75.200 L 174.800 75.200 174.800 87.604 M274.800 87.603 L 274.800 100.006 250.100 99.903 L 225.400 99.800 225.294 87.500 L 225.188 75.200 249.994 75.200 L 274.800 75.200 274.800 87.603 M188.100 100.265 C 187.731 100.414,187.600 102.034,187.600 106.433 L 187.600 112.400 200.000 112.400 L 212.400 112.400 212.400 106.443 C 212.400 101.380,212.305 100.449,211.767 100.243 C 211.013 99.953,188.821 99.974,188.100 100.265 M137.867 112.667 C 137.720 112.813,137.600 115.693,137.600 119.067 L 137.600 125.200 162.400 125.200 L 187.200 125.200 187.200 131.198 L 187.200 137.195 156.100 137.298 L 125.000 137.400 125.000 143.800 L 125.000 150.200 144.000 150.206 L 163.000 150.212 144.100 150.102 L 125.200 149.992 125.200 143.796 L 125.200 137.600 156.400 137.600 L 187.600 137.600 187.600 131.400 L 187.600 125.200 212.390 125.200 L 237.179 125.200 237.290 131.300 L 237.400 137.400 256.400 137.408 L 275.400 137.416 256.600 137.208 L 237.800 137.000 237.600 131.000 L 237.400 125.000 212.500 124.897 L 187.600 124.794 187.600 118.862 L 187.600 112.931 168.934 112.665 C 145.378 112.330,138.203 112.331,137.867 112.667 M293.700 137.900 L 312.000 138.008 312.000 150.204 L 312.000 162.400 293.611 162.400 L 275.221 162.400 275.099 156.500 L 274.977 150.600 274.888 156.500 L 274.800 162.400 243.600 162.400 L 212.400 162.400 212.497 187.500 L 212.594 212.600 212.700 187.700 L 212.806 162.800 243.793 162.800 L 274.779 162.800 274.890 168.900 L 275.000 175.000 293.500 175.104 L 312.000 175.208 312.075 194.104 C 312.116 204.497,312.161 224.160,312.175 237.800 L 312.200 262.600 318.400 262.800 L 324.600 263.000 324.710 269.100 L 324.821 275.200 337.200 275.200 L 349.579 275.200 349.690 281.300 L 349.800 287.400 362.100 287.506 L 374.400 287.612 374.400 293.606 L 374.400 299.600 368.443 299.600 C 361.206 299.600,362.000 297.970,362.000 312.822 L 362.000 324.779 356.000 324.906 L 349.999 325.032 356.100 325.016 L 362.200 325.000 362.400 312.600 L 362.600 300.200 368.800 300.000 L 375.000 299.800 375.111 294.055 C 375.258 286.453,376.671 287.200,362.151 287.200 L 350.000 287.200 350.000 281.000 L 350.000 274.800 337.610 274.800 L 325.221 274.800 325.110 268.700 L 325.000 262.600 319.017 262.489 C 315.051 262.415,312.938 262.223,312.749 261.918 C 312.593 261.665,312.465 242.146,312.464 218.542 C 312.464 194.938,312.348 175.440,312.208 175.213 C 312.038 174.939,305.783 174.800,293.576 174.800 L 275.200 174.800 275.200 168.804 L 275.200 162.808 293.700 162.704 L 312.200 162.600 312.306 150.100 L 312.411 137.600 293.906 137.696 L 275.400 137.792 293.700 137.900 M193.500 150.300 C 203.895 150.359,220.905 150.359,231.300 150.300 C 241.695 150.241,233.190 150.192,212.400 150.192 C 191.610 150.192,183.105 150.241,193.500 150.300 M265.519 150.298 C 267.344 150.372,270.224 150.372,271.919 150.297 C 273.614 150.222,272.120 150.161,268.600 150.162 C 265.080 150.162,263.694 150.224,265.519 150.298 M112.895 162.341 C 112.574 162.540,112.387 164.555,112.311 168.617 L 112.200 174.600 106.000 174.800 L 99.800 175.000 99.800 187.400 C 99.800 194.220,99.755 208.210,99.700 218.490 L 99.600 237.179 93.500 237.290 L 87.400 237.400 87.392 256.200 L 87.384 275.000 87.592 256.400 L 87.800 237.800 93.717 237.689 C 97.930 237.610,99.685 237.438,99.813 237.089 C 99.912 236.820,100.040 222.830,100.097 206.000 L 100.200 175.400 106.400 175.200 L 112.600 175.000 112.710 168.900 L 112.821 162.800 156.477 162.800 C 180.488 162.800,200.058 162.734,199.967 162.654 C 199.637 162.366,113.356 162.056,112.895 162.341 M206.000 224.810 L 199.800 225.021 206.000 225.210 L 212.200 225.400 212.200 250.000 L 212.200 274.600 206.000 274.821 L 199.800 275.042 206.200 275.021 L 212.600 275.000 212.800 250.200 L 213.000 225.400 218.800 225.400 L 224.600 225.400 224.704 244.100 L 224.808 262.800 231.004 262.800 L 237.200 262.800 237.200 275.153 L 237.200 287.507 238.100 287.748 C 238.595 287.881,241.385 287.992,244.300 287.995 L 249.600 288.000 249.600 299.767 C 249.600 314.401,248.808 312.800,256.043 312.800 L 262.000 312.800 262.000 318.367 C 262.000 325.899,261.318 325.216,268.743 325.116 L 275.000 325.032 268.800 324.816 L 262.600 324.600 262.490 318.510 L 262.379 312.421 256.290 312.310 L 250.200 312.200 250.000 299.800 L 249.800 287.400 243.706 287.290 L 237.612 287.179 237.506 274.890 L 237.400 262.600 231.300 262.490 L 225.200 262.379 225.194 244.090 C 225.191 234.030,225.053 225.588,224.889 225.330 C 224.526 224.760,215.116 224.501,206.000 224.810 M74.800 281.000 L 74.800 287.200 68.600 287.200 L 62.400 287.200 62.400 312.400 L 62.400 337.600 68.600 337.600 L 74.800 337.600 74.800 350.000 C 74.800 356.820,74.935 362.400,75.100 362.400 C 75.265 362.400,75.310 356.775,75.200 349.900 L 75.000 337.400 68.900 337.290 L 62.800 337.179 62.800 312.400 L 62.800 287.621 68.900 287.510 L 75.000 287.400 75.111 281.417 C 75.189 277.245,75.370 275.339,75.711 275.123 C 76.051 274.907,75.986 274.810,75.500 274.806 C 74.863 274.801,74.800 275.360,74.800 281.000 M187.599 287.500 C 187.599 287.665,189.534 287.753,191.899 287.695 C 199.585 287.507,200.333 287.350,193.900 287.274 C 190.435 287.233,187.600 287.335,187.599 287.500 M187.200 330.790 L 187.200 361.979 181.100 362.101 L 175.000 362.222 181.300 362.311 L 187.600 362.400 187.600 331.000 C 187.600 313.730,187.510 299.600,187.400 299.600 C 187.290 299.600,187.200 313.635,187.200 330.790 M374.800 324.790 L 374.800 337.200 356.376 337.192 C 346.242 337.187,337.782 337.287,337.576 337.415 C 337.369 337.543,337.200 340.326,337.200 343.618 L 337.200 349.588 324.900 349.700 L 312.600 349.812 324.910 349.906 L 337.221 350.000 337.110 356.100 L 337.000 362.200 330.910 362.310 L 324.821 362.421 324.710 368.510 L 324.600 374.600 318.490 374.710 L 312.380 374.821 312.490 381.110 L 312.600 387.400 325.000 387.400 L 337.400 387.400 337.511 381.417 C 337.589 377.245,337.770 375.339,338.111 375.123 C 338.380 374.952,343.955 374.809,350.500 374.806 L 362.400 374.800 362.400 362.406 L 362.400 350.011 374.900 349.906 L 387.400 349.800 387.400 331.200 L 387.400 312.600 381.100 312.490 L 374.800 312.380 374.800 324.790 M349.800 343.800 L 349.800 349.800 343.800 349.800 L 337.800 349.800 337.690 343.690 L 337.579 337.579 343.690 337.690 L 349.800 337.800 349.800 343.800 M85.328 362.700 C 90.568 362.763,99.028 362.763,104.128 362.700 C 109.227 362.636,104.940 362.585,94.600 362.585 C 84.260 362.585,80.087 362.637,85.328 362.700 M137.529 362.700 C 144.420 362.761,155.580 362.761,162.329 362.700 C 169.078 362.638,163.440 362.588,149.800 362.588 C 136.160 362.588,130.638 362.638,137.529 362.700 M100.090 381.100 L 100.200 387.400 125.000 387.400 L 149.800 387.400 149.910 381.100 L 150.020 374.800 125.000 374.800 L 99.980 374.800 100.090 381.100 " stroke="none" fill="#765048" fill-rule="evenodd"></path></g></svg>